grf
version=1
nRows=19
nColumns=37
inDegrees=no
endheader
time	ground_force_1_vx	ground_force_1_vy	ground_force_1_vz	ground_force_1_px	ground_force_1_py	ground_force_1_pz	ground_moment_1_mx	ground_moment_1_my	ground_moment_1_mz	ground_force_2_vx	ground_force_2_vy	ground_force_2_vz	ground_force_2_px	ground_force_2_py	ground_force_2_pz	ground_moment_2_mx	ground_moment_2_my	ground_moment_2_mz	ground_force_3_vx	ground_force_3_vy	ground_force_3_vz	ground_force_3_px	ground_force_3_py	ground_force_3_pz	ground_moment_3_mx	ground_moment_3_my	ground_moment_3_mz	ground_force_4_vx	ground_force_4_vy	ground_force_4_vz	ground_force_4_px	ground_force_4_py	ground_force_4_pz	ground_moment_4_mx	ground_moment_4_my	ground_moment_4_mz
      1.97000000	      0.00000000	     -0.00000000	      0.00000000	      0.00000000	      0.00000000	      0.00000000	      0.00000000	      0.00000000	      0.00000000	      0.44422528	     61.23405075	   -435.11624146	   -280.72477854	  -1123.83861194	      0.00000000	      0.00000000	      0.00000000	   4496.20518083	      3.54772416	    -58.29336197	   -435.03738403	   -302.50324888	   -658.88838765	      0.00000000	      0.00000000	     -0.00000000	  -5289.67988331	      0.00000000	     -0.00000000	      0.00000000	      0.00000000	      0.00000000	      0.00000000	      0.00000000	      0.00000000	      0.00000000
      1.98000000	      0.00000000	     -0.00000000	      0.00000000	      0.00000000	      0.00000000	      0.00000000	      0.00000000	      0.00000000	      0.00000000	     -0.35783994	     60.78743362	   -439.00268555	   -281.00073909	  -1123.14988474	      0.00000000	      0.00000000	      0.00000000	   4281.87452359	      4.43359872	    -57.67599145	   -436.07705688	   -303.58817312	   -658.16305569	      0.00000000	      0.00000000	     -0.00000000	  -5560.65440337	      0.00000000	     -0.00000000	      0.00000000	      0.00000000	      0.00000000	      0.00000000	      0.00000000	      0.00000000	      0.00000000
      1.99000000	      0.00000000	     -0.00000000	      0.00000000	      0.00000000	      0.00000000	      0.00000000	      0.00000000	      0.00000000	      0.00000000	     -0.71833724	     60.25157166	   -438.65869141	   -280.23240681	  -1124.56683694	      0.00000000	      0.00000000	      0.00000000	   4281.37222169	      5.23166731	    -56.96805618	   -433.99993896	   -304.44180437	   -659.81893753	      0.00000000	     -0.00000000	     -0.00000000	  -5633.11493027	      0.00000000	     -0.00000000	      0.00000000	      0.00000000	      0.00000000	      0.00000000	      0.00000000	      0.00000000	      0.00000000
      2.00000000	      0.00000000	     -0.00000000	      0.00000000	      0.00000000	      0.00000000	      0.00000000	      0.00000000	      0.00000000	      0.00000000	     -1.78349388	     59.81294632	   -438.99984741	   -280.91385566	  -1125.11504464	      0.00000000	      0.00000000	      0.00000000	   4266.13274157	      5.41135297	    -56.17259264	   -433.64355469	   -306.03060712	   -659.27927595	      0.00000000	      0.00000000	     -0.00000000	  -5663.81943501	      0.00000000	     -0.00000000	      0.00000000	      0.00000000	      0.00000000	      0.00000000	      0.00000000	      0.00000000	      0.00000000
      2.01000000	      0.00000000	     -0.00000000	      0.00000000	      0.00000000	      0.00000000	      0.00000000	      0.00000000	      0.00000000	      0.00000000	     -3.03315735	     59.89729309	   -437.21368408	   -280.07432375	  -1126.33027153	      0.00000000	      0.00000000	      0.00000000	   4053.69426445	      5.32264231	    -54.76188325	   -429.80886841	   -306.63680106	   -659.12009554	      0.00000000	      0.00000000	     -0.00000000	  -5639.87749729	      0.00000000	     -0.00000000	      0.00000000	      0.00000000	      0.00000000	      0.00000000	      0.00000000	      0.00000000	      0.00000000
      2.02000000	      0.00000000	     -0.00000000	      0.00000000	      0.00000000	      0.00000000	      0.00000000	      0.00000000	      0.00000000	      0.00000000	     -4.01060581	     60.60770798	   -434.03903198	   -278.58098739	  -1125.69793401	      0.00000000	      0.00000000	      0.00000000	   4077.61215065	      4.35061987	    -53.61221352	   -426.31787109	   -307.50241324	   -659.59829690	      0.00000000	      0.00000000	     -0.00000000	  -5860.68601623	      0.00000000	     -0.00000000	      0.00000000	      0.00000000	      0.00000000	      0.00000000	      0.00000000	      0.00000000	      0.00000000
      2.03000000	      0.00000000	     -0.00000000	      0.00000000	      0.00000000	      0.00000000	      0.00000000	      0.00000000	      0.00000000	      0.00000000	     -4.81736755	     59.72051620	   -431.22024536	   -278.12790440	  -1126.98997893	      0.00000000	      0.00000000	      0.00000000	   4158.10411968	      3.28229440	    -53.08133726	   -426.30197144	   -307.77113124	   -657.84309603	      0.00000000	      0.00000000	     -0.00000000	  -5765.17692473	      0.00000000	     -0.00000000	      0.00000000	      0.00000000	      0.00000000	      0.00000000	      0.00000000	      0.00000000	      0.00000000
      2.04000000	      0.00000000	     -0.00000000	      0.00000000	      0.00000000	      0.00000000	      0.00000000	      0.00000000	      0.00000000	      0.00000000	     -6.95250177	     59.01023865	   -427.36178589	   -276.72685061	  -1126.32659378	      0.00000000	      0.00000000	      0.00000000	   4276.18762937	      1.07034788	    -53.43578348	   -428.05072021	   -307.34693103	   -658.41612311	      0.00000000	      0.00000000	     -0.00000000	  -6055.82936938	      0.00000000	     -0.00000000	      0.00000000	      0.00000000	      0.00000000	      0.00000000	      0.00000000	      0.00000000	      0.00000000
      2.05000000	      0.00000000	     -0.00000000	      0.00000000	      0.00000000	      0.00000000	      0.00000000	      0.00000000	      0.00000000	      0.00000000	     -8.11555576	     59.71347046	   -429.45651245	   -276.03581528	  -1127.48384419	      0.00000000	      0.00000000	      0.00000000	   4232.15812290	     -0.88198998	    -54.84904472	   -428.41912842	   -306.91863468	   -658.57827228	      0.00000000	      0.00000000	     -0.00000000	  -6053.03462259	      0.00000000	     -0.00000000	      0.00000000	      0.00000000	      0.00000000	      0.00000000	      0.00000000	      0.00000000	      0.00000000
      2.06000000	      0.00000000	     -0.00000000	      0.00000000	      0.00000000	      0.00000000	      0.00000000	      0.00000000	      0.00000000	      0.00000000	     -8.46933174	     59.90695190	   -429.44436646	   -275.25258561	  -1126.98697217	      0.00000000	      0.00000000	      0.00000000	   4507.79922043	     -1.85874215	    -56.26091750	   -430.49847412	   -306.73050966	   -658.06251098	      0.00000000	      0.00000000	     -0.00000000	  -6059.93985567	      0.00000000	     -0.00000000	      0.00000000	      0.00000000	      0.00000000	      0.00000000	      0.00000000	      0.00000000	      0.00000000
      2.07000000	      0.00000000	     -0.00000000	      0.00000000	      0.00000000	      0.00000000	      0.00000000	      0.00000000	      0.00000000	      0.00000000	     -7.67210388	     61.85801315	   -433.34579468	   -275.22883434	  -1128.42399676	      0.00000000	      0.00000000	      0.00000000	   4502.83650273	     -1.76823781	    -58.46150955	   -434.34460449	   -306.40207752	   -657.42638466	      0.00000000	      0.00000000	     -0.00000000	  -6219.88607568	      0.00000000	     -0.00000000	      0.00000000	      0.00000000	      0.00000000	      0.00000000	      0.00000000	      0.00000000	      0.00000000
      2.08000000	      0.00000000	     -0.00000000	      0.00000000	      0.00000000	      0.00000000	      0.00000000	      0.00000000	      0.00000000	      0.00000000	     -7.05258131	     63.72329330	   -435.44476318	   -275.80677421	  -1129.54861993	      0.00000000	      0.00000000	      0.00000000	   4467.89618286	     -1.15650290	    -59.26385488	   -435.07495117	   -307.10577462	   -658.37108307	      0.00000000	      0.00000000	     -0.00000000	  -6126.63871739	      0.00000000	     -0.00000000	      0.00000000	      0.00000000	      0.00000000	      0.00000000	      0.00000000	      0.00000000	      0.00000000
      2.09000000	      0.00000000	     -0.00000000	      0.00000000	      0.00000000	      0.00000000	      0.00000000	      0.00000000	      0.00000000	      0.00000000	     -6.14845610	     64.61600494	   -434.43930054	   -276.15438194	  -1128.76359910	      0.00000000	      0.00000000	      0.00000000	   4575.95694075	     -0.26962777	    -60.23712537	   -437.82925415	   -306.97046703	   -657.05363906	      0.00000000	      0.00000000	     -0.00000000	  -6222.77760628	      0.00000000	     -0.00000000	      0.00000000	      0.00000000	      0.00000000	      0.00000000	      0.00000000	      0.00000000	      0.00000000
      2.10000000	      0.00000000	     -0.00000000	      0.00000000	      0.00000000	      0.00000000	      0.00000000	      0.00000000	      0.00000000	      0.00000000	     -5.98090649	     65.76684570	   -436.83843994	   -276.00226123	  -1130.42905574	      0.00000000	      0.00000000	      0.00000000	   4615.97212047	      0.00562890	    -60.50222778	   -437.82873535	   -307.71159590	   -657.37640985	      0.00000000	      0.00000000	     -0.00000000	  -6150.18720439	      0.00000000	     -0.00000000	      0.00000000	      0.00000000	      0.00000000	      0.00000000	      0.00000000	      0.00000000	      0.00000000
      2.11000000	      0.00000000	     -0.00000000	      0.00000000	      0.00000000	      0.00000000	      0.00000000	      0.00000000	      0.00000000	      0.00000000	     -6.69872236	     65.42568207	   -433.01431274	   -276.16947366	  -1129.48016800	      0.00000000	      0.00000000	      0.00000000	   4644.54885641	      0.19309706	    -61.28744509	   -438.20074463	   -307.82541717	   -657.00162297	      0.00000000	      0.00000000	     -0.00000000	  -6198.86615237	      0.00000000	     -0.00000000	      0.00000000	      0.00000000	      0.00000000	      0.00000000	      0.00000000	      0.00000000	      0.00000000
      2.12000000	      0.00000000	     -0.00000000	      0.00000000	      0.00000000	      0.00000000	      0.00000000	      0.00000000	      0.00000000	      0.00000000	     -7.04763031	     64.80626678	   -428.80233765	   -275.56308916	  -1127.87381143	      0.00000000	      0.00000000	      0.00000000	   4817.20061213	      0.78374146	    -60.85364539	   -438.85888672	   -308.13068257	   -657.07782786	      0.00000000	      0.00000000	     -0.00000000	  -6483.32910588	      0.00000000	     -0.00000000	      0.00000000	      0.00000000	      0.00000000	      0.00000000	      0.00000000	      0.00000000	      0.00000000
      2.13000000	      0.00000000	     -0.00000000	      0.00000000	      0.00000000	      0.00000000	      0.00000000	      0.00000000	      0.00000000	      0.00000000	     -6.78669834	     64.68636322	   -427.38308716	   -274.63209747	  -1129.19356179	      0.00000000	      0.00000000	      0.00000000	   4715.50759607	     -0.07988255	    -60.83165740	   -438.88360596	   -308.89185057	   -657.21286134	      0.00000000	      0.00000000	     -0.00000000	  -6325.08769182	      0.00000000	     -0.00000000	      0.00000000	      0.00000000	      0.00000000	      0.00000000	      0.00000000	      0.00000000	      0.00000000
      2.14000000	      0.00000000	     -0.00000000	      0.00000000	      0.00000000	      0.00000000	      0.00000000	      0.00000000	      0.00000000	      0.00000000	     -7.49838305	     63.10197830	   -421.66891479	   -274.38326636	  -1128.65406958	      0.00000000	      0.00000000	      0.00000000	   4700.11781099	      0.17741628	    -60.50267412	   -439.25103760	   -308.87211131	   -656.42411676	      0.00000000	     -0.00000000	     -0.00000000	  -6370.02957553	      0.00000000	     -0.00000000	      0.00000000	      0.00000000	      0.00000000	      0.00000000	      0.00000000	      0.00000000	      0.00000000
      2.15000000	      0.00000000	     -0.00000000	      0.00000000	      0.00000000	      0.00000000	      0.00000000	      0.00000000	      0.00000000	      0.00000000	     -8.48725414	     61.77471924	   -416.80084229	   -273.26631351	  -1129.01470903	      0.00000000	      0.00000000	      0.00000000	   4903.55777835	      0.35726293	    -60.14465717	   -438.90270996	   -309.63789511	   -657.15247096	      0.00000000	      0.00000000	     -0.00000000	  -6480.41749418	      0.00000000	     -0.00000000	      0.00000000	      0.00000000	      0.00000000	      0.00000000	      0.00000000	      0.00000000	      0.00000000
